<svg id="Capa_1" enable-background="new 0 0 512 512" height="512" viewBox="0 0 512 512" width="512" xmlns="http://www.w3.org/2000/svg"><g><path d="m235.984 461.984 20.016 50.016c107.065 0 198.762-65.734 236.979-159.038-9.897-2.353-19.22-6.198-27.735-11.263-11.217 27.392-168.893 120.285-229.26 120.285z" fill="#ffcd00"/><path d="m46.756 341.699c-8.516 5.065-17.838 8.91-27.735 11.263 38.217 93.304 129.914 159.038 236.979 159.038v-50.016c-60.367 0-198.027-92.893-209.244-120.285z" fill="#fff36c"/><path d="m440.876 321.375c-9.608 27.233-152.538 110.609-204.892 110.609l20.016 50.016c60.367 0 117.12-23.508 159.806-66.194 21.562-21.561 38.221-46.715 49.438-74.107-9.168-5.453-17.399-12.323-24.368-20.324z" fill="#ff9f22"/><path d="m71.124 321.375c-6.969 8.001-15.2 14.871-24.368 20.324 11.217 27.392 27.877 52.546 49.438 74.107 42.686 42.686 99.439 66.194 159.806 66.194v-50.016c-52.354 0-175.268-83.376-184.876-110.609z" fill="#ffcd00"/><path d="m465.244 170.301c8.516-5.065 17.838-8.91 27.735-11.263-38.217-93.304-129.914-159.038-236.979-159.038l-20.016 50.016c60.367 0 218.043 92.893 229.26 120.285z" fill="#ffcd00"/><path d="m19.021 159.038c9.897 2.353 19.22 6.198 27.735 11.263 11.217-27.392 148.877-120.285 209.244-120.285v-50.016c-107.065 0-198.762 65.734-236.979 159.038z" fill="#fff36c"/><path d="m440.876 190.625c6.969-8.001 15.2-14.871 24.368-20.324-11.217-27.392-27.877-52.546-49.438-74.107-42.686-42.686-99.439-66.194-159.806-66.194l-20.016 50.016c52.354 0 195.284 83.376 204.892 110.609z" fill="#ff9f22"/><path d="m96.194 96.194c-21.562 21.561-38.221 46.715-49.438 74.107 9.168 5.453 17.399 12.323 24.368 20.324 9.608-27.233 132.522-110.609 184.876-110.609v-50.016c-60.367 0-117.12 23.508-159.806 66.194z" fill="#ffcd00"/><path d="m440.876 321.375c-15.254-17.511-24.503-40.382-24.503-65.375s9.249-47.864 24.503-65.375c-9.608-27.233-25.259-52.194-46.283-73.218-37.02-37.019-86.239-57.407-138.593-57.407l-20.016 196 20.016 196c52.354 0 101.573-20.388 138.593-57.407 21.023-21.024 36.675-45.985 46.283-73.218z" fill="#b4d2d7"/><path d="m117.407 117.407c-21.024 21.024-36.675 45.985-46.283 73.218 15.254 17.511 24.503 40.382 24.503 65.375s-9.249 47.864-24.503 65.375c9.608 27.233 25.259 52.194 46.283 73.218 37.02 37.019 86.239 57.407 138.593 57.407v-392c-52.354 0-101.573 20.388-138.593 57.407z" fill="#e1ebf0"/><path d="m352.655 256c0-53.295-43.359-96.654-96.655-96.654l19 115.154 39.022 58.752c23.445-17.653 38.633-45.711 38.633-77.252z" fill="#87a0af"/><path d="m256 159.346-15 117.154 15 76.154c21.755 0 41.852-7.227 58.022-19.402z" fill="#e1ebf0"/><path d="m197.978 333.252c16.17 12.176 36.267 19.402 58.022 19.402v-193.308l-46 86.953z" fill="#fff5f5"/><path d="m256 159.346c-53.296 0-96.655 43.359-96.655 96.654 0 31.541 15.188 59.599 38.633 77.252z" fill="#b4d2d7"/></g></svg>