<svg id="Capa_1" enable-background="new 0 0 512 512" height="512" viewBox="0 0 512 512" width="512" xmlns="http://www.w3.org/2000/svg"><g><path d="m244.248 57.763-23.926-57.763h-81.843l25.08 112.851z" fill="#ffdecf"/><path d="m138.479 0h-81.842l47.897 115.635 77.517-10.444z" fill="#ffeee5"/><path d="m175.039 140.568 80.69-55.088-11.481-27.717-69.857 28.936z" fill="#c47e4e"/><path d="m174.391 86.699-69.857 28.936 11.481 27.716 77.517-10.443z" fill="#dbad5c"/><path d="m187.968 171.781 80.69-55.088-12.929-31.213-69.857 28.935z" fill="#ffdecf"/><path d="m185.872 114.415-69.857 28.936 12.929 31.214 77.517-10.444z" fill="#ffeee5"/><path d="m199.449 199.498 80.69-55.089-11.481-27.716-69.857 28.936z" fill="#c47e4e"/><path d="m198.801 145.629-69.857 28.936 11.48 27.716 77.517-10.443z" fill="#dbad5c"/><path d="m368.288 290.426c-11.926-13.303-23.032-27.281-33.267-41.854l-44.233-78.674c-1.164-2.664-2.303-5.34-3.417-8.029l-7.232-17.461-69.857 28.936 17.426 94.373 74.765 128.194 47.602-20.99c33.218-14.646 42.447-57.461 18.213-84.495z" fill="#ffdecf"/><path d="m140.424 202.281 47.374 114.37-34.44 45.46 45.347 51.297 61.504 22.591 22.303-31.285 19.96-8.802-92.191-222.567z" fill="#ffeee5"/><path d="m135.225 386.047 42.766 55.965 64.802 18.418 17.416-24.431-106.851-73.888z" fill="#dbad5c"/><path d="m88.127 448.215h-27.59c-17.614 0-31.893 14.279-31.893 31.893s14.279 31.893 31.893 31.893h96.643c30.652 0 59.414-14.818 77.207-39.778l8.406-11.792-107.568-74.383z" fill="#ffeee5"/><path d="m280.523 237.09v18.91h92.907c30.355 0 54.963-24.608 54.963-54.963 30.355 0 54.963-24.608 54.963-54.963v-23.725h-88.091c-63.371 0-114.742 51.371-114.742 114.741z" fill="#fff5f5"/></g></svg>