<svg id="Capa_1" enable-background="new 0 0 512 512" height="512" viewBox="0 0 512 512" width="512" xmlns="http://www.w3.org/2000/svg"><g><path d="m501.102 501.102c-14.531 14.531-38.09 14.531-52.62 0l-18.793-18.793 26.31-54.617z" fill="#e7c994"/><path d="m482.309 429.689 18.793 18.793c14.531 14.531 14.531 38.09 0 52.62l-59.257-59.257z" fill="#dbad5c"/><path d="m0 90.206v-90.206l379.94 351.633-59.257 59.256z" fill="#e1ebf0"/><path d="m90.206 0 320.684 320.684-45.104 45.103-365.786-365.787z" fill="#b4d2d7"/><path d="m455.999 455.999-26.31 26.31-45.103-45.103 26.31-54.617z" fill="#dbad5c"/><path d="m396.742 396.742 40.464-12.156 45.103 45.103-26.31 26.31z" fill="#c47e4e"/><path d="m379.94 351.634 30.956 59.262-26.31 26.31-45.109-45.109z" fill="#e7c994"/><path d="m382.892 343.29h37.208v63.794h-37.208z" fill="#dbad5c" transform="matrix(.707 -.707 .707 .707 -147.701 393.79)"/><path d="m276.25 434.111 78.93-78.93 17.683 3.528 3.531 17.685-78.931 78.93z" fill="#c47e4e"/><path d="m349.44 311.322h111.625v30h-111.625z" fill="#8f4813" transform="matrix(.707 -.707 .707 .707 -112.049 382.134)"/><path d="m10.898 501.102c14.531 14.531 38.09 14.531 52.62 0l18.793-18.793-26.31-54.617z" fill="#e7c994"/><path d="m29.691 429.689-18.793 18.793c-14.531 14.531-14.531 38.09 0 52.62l59.257-59.257z" fill="#f3e5cb"/><path d="m512 90.206v-90.206l-379.94 351.633 59.257 59.256z" fill="#e1ebf0"/><path d="m421.794 0-320.684 320.684 45.104 45.103 365.786-365.787z" fill="#fff5f5"/><path d="m56.001 455.999 26.31 26.31 45.103-45.103-26.31-54.617z" fill="#dbad5c"/><path d="m115.258 396.742-40.464-12.156-45.103 45.103 26.31 26.31z" fill="#e7c994"/><path d="m132.06 351.634-30.956 59.262 26.31 26.31 45.109-45.109z" fill="#e7c994"/><path d="m78.607 356.582h63.794v37.208h-63.794z" fill="#f3e5cb" transform="matrix(.707 -.707 .707 .707 -232.931 188.027)"/><path d="m235.75 434.111-78.93-78.93-17.683 3.528-3.531 17.685 78.931 78.93z" fill="#c47e4e"/><path d="m91.748 270.51h30v111.625h-30z" fill="#dbad5c" transform="matrix(.707 -.707 .707 .707 -199.479 171.06)"/></g></svg>